# xmcd CD database file
#
# Track frame offsets:
#	150
#	25556
#	45625
#	69501
#	93593
#	119847
#	147407
#	179618
#	206935
#	224272
#
# Disc length: 3336 seconds
#
# Revision: 1
# Processed by: cddbd v1.5.2PL0 Copyright (c) Steve Scherf et al.
# Submitted via: CDex 1.81
#
DISCID=9e0d060a
DTITLE=Fred Nardin and Jon Boutellier 4Tet - Watt's
DYEAR=2015
DGENRE=Jazz
TTITLE0=Watt's
TTITLE1=Gentleman is a Dope
TTITLE2=Hope
TTITLE3=Highlander's Walk
TTITLE4=East of the Sun
TTITLE5=Watt's
TTITLE6=Not So Cold
TTITLE7=Yatchan
TTITLE8=Stevie The Great
TTITLE9=Chinoiserie
EXTD=YEAR: 2015
EXTT0=
EXTT1=
EXTT2=
EXTT3=
EXTT4=
EXTT5=
EXTT6=
EXTT7=
EXTT8=
EXTT9=
PLAYORDER=
